<svg xmlns="http://www.w3.org/2000/svg" width="800" height="800" viewBox="0 0 24 24"><path fill-rule="evenodd" d="M12.0002 8c-2.209 0-4 1.7909-4 4 0 2.2091 1.791 4 4 4 2.2092 0 4-1.7909 4-4 0-2.2091-1.7908-4-4-4Zm-2 4c0-1.1046.8955-2 2-2 1.1046 0 2 .8954 2 2s-.8954 2-2 2c-1.1045 0-2-.8954-2-2Z" clip-rule="evenodd"/><path fill-rule="evenodd" d="M11.2867.5c-1.4009 0-2.6406.9674-2.915 2.356l-.079.4002c-.1878.9502-1.2307 1.5744-2.2476 1.232l-.3968-.1337c-1.3258-.4465-2.8096.0752-3.53 1.2848l-.7134 1.198c-.7272 1.2212-.4506 2.7676.6344 3.6769l.3178.2664c.7723.6473.7723 1.7915 0 2.4388l-.3178.2664c-1.085.9093-1.3616 2.4557-.6344 3.6768l.7134 1.198c.7204 1.2097 2.2042 1.7314 3.53 1.2849l.3968-.1337c1.0168-.3425 2.0598.2817 2.2475 1.2319l.0791.4002c.2744 1.3886 1.5141 2.3561 2.915 2.3561h1.4269c1.401 0 2.6407-.9675 2.9151-2.3562l.079-.4c.1877-.9502 1.2307-1.5745 2.2476-1.232l.3968.1337c1.3258.4465 2.8096-.0752 3.53-1.2849l.7134-1.1979c.7272-1.2211.4505-2.7676-.6344-3.6769l-.3179-.2664c-.7723-.6472-.7723-1.7916 0-2.4388l.3179-.2664c1.0849-.9093 1.3616-2.4558.6344-3.6769l-.7134-1.198c-.7204-1.2096-2.2041-1.7314-3.5299-1.2849l-.397.1337c-1.0168.3425-2.0598-.2818-2.2475-1.232l-.079-.4C15.3543 1.4676 14.1146.5 12.7136.5h-1.4269Zm-.9529 2.7437c.0811-.4104.4645-.7437.9529-.7437h1.4269c.4885 0 .8719.3334.953.7438l.079.4c.4335 2.1943 2.7453 3.4479 4.8479 2.7397l.397-.1337c.459-.1545.9489.0362 1.1732.4128l.7134 1.198c.2175.3653.1437.8321-.2007 1.1208l-.3178.2663a3.573 3.573 0 0 0 0 5.5046l.3178.2663c.3444.2887.4182.7555.2007 1.1208l-.7134 1.1979c-.2243.3767-.7142.5674-1.1732.4128l-.3969-.1337c-2.1027-.7082-4.4145.5454-4.848 2.7398l-.079.4c-.0811.4104-.4645.7438-.953.7438h-1.4269c-.4884 0-.8718-.3333-.9529-.7438l-.0791-.4002c-.4336-2.1943-2.7454-3.4478-4.848-2.7395l-.3968.1336c-.459.1546-.9489-.0361-1.1732-.4128l-.7134-1.198c-.2175-.3652-.1437-.832.2007-1.1207l.3178-.2664c1.726-1.4466 1.726-4.0578 0-5.5044l-.3178-.2664c-.3444-.2887-.4182-.7555-.2007-1.1207l.7134-1.198c.2244-.3767.7142-.5674 1.1732-.4128l.3969.1336c2.1026.7082 4.4143-.5453 4.8479-2.7396l.0791-.4002Z" clip-rule="evenodd"/></svg>